<?xml version="1.0" standalone="no"?>
<!DOCTYPE svg PUBLIC "-//W3C//DTD SVG 20010904//EN"
 "http://www.w3.org/TR/2001/REC-SVG-20010904/DTD/svg10.dtd">
<svg version="1.0" xmlns="http://www.w3.org/2000/svg"
 width="768.000000pt" height="768.000000pt" viewBox="0 0 768.000000 768.000000"
 preserveAspectRatio="xMidYMid meet">
<metadata>
Created by potrace 1.14, written by Peter Selinger 2001-2017
</metadata>
<g transform="translate(0.000000,768.000000) scale(0.100000,-0.100000)"
fill="#000000" stroke="none">
<path d="M0 3840 l0 -3840 3840 0 3840 0 0 3840 0 3840 -3840 0 -3840 0 0
-3840z m4574 930 c78 -29 145 -176 153 -330 2 -47 11 -102 19 -123 8 -20 14
-49 14 -64 0 -34 91 -123 125 -123 13 0 36 -5 52 -11 15 -7 64 -17 108 -24 44
-7 105 -20 135 -29 74 -21 113 -20 135 4 10 11 23 20 30 20 7 0 20 9 30 20 10
11 24 20 30 20 7 0 20 11 28 23 8 13 34 41 57 63 23 21 57 61 75 88 18 26 58
74 89 106 31 32 56 61 56 65 0 14 67 85 104 110 40 27 120 34 169 16 36 -14
144 -118 151 -146 3 -13 22 -51 41 -84 19 -33 35 -67 35 -76 0 -19 48 -105 67
-120 22 -17 37 -106 36 -220 0 -118 -32 -404 -57 -523 -9 -40 -16 -89 -16
-108 0 -19 -7 -51 -15 -71 -9 -22 -15 -68 -15 -122 0 -47 -5 -102 -10 -121
-25 -84 -46 -365 -32 -422 8 -32 7 -68 -4 -143 -9 -55 -18 -116 -21 -136 -3
-25 1 -45 12 -62 13 -20 15 -40 9 -104 -3 -43 -12 -97 -20 -121 -11 -33 -14
-114 -14 -350 0 -277 2 -314 20 -377 11 -38 20 -81 20 -96 0 -14 7 -34 15 -45
20 -27 18 -61 -5 -74 -13 -7 -390 -10 -1201 -10 -1008 1 -1196 3 -1278 16 -53
9 -116 18 -141 20 -25 3 -56 7 -68 10 -27 5 -27 -40 -3 430 6 121 14 344 17
495 3 151 7 310 9 354 2 44 4 206 5 360 2 240 0 289 -15 340 -10 33 -23 85
-30 115 -7 30 -25 75 -39 100 -14 25 -33 60 -41 78 -21 45 -45 71 -80 87 -16
7 -45 27 -64 44 -18 17 -41 31 -50 32 -9 0 -38 13 -66 28 -58 33 -61 52 -17
110 42 54 82 139 82 174 1 18 8 50 16 72 25 67 62 188 69 225 10 52 43 148 62
176 15 24 14 64 -3 121 -5 18 -1 25 17 31 23 9 119 -6 213 -34 26 -8 56 -14
66 -14 10 0 31 -7 46 -15 16 -8 46 -15 66 -15 21 0 61 -9 90 -20 75 -28 92
-26 117 15 11 19 31 40 43 46 13 5 37 28 53 50 17 23 50 57 75 77 25 20 61 52
80 71 19 18 62 47 95 64 33 16 76 38 95 48 38 21 131 26 174 9z"/>
<path d="M4529 3840 c-99 -12 -158 -95 -145 -204 7 -60 25 -89 79 -123 35 -23
53 -27 103 -26 79 1 129 31 167 101 34 62 34 92 2 151 -43 78 -113 112 -206
101z"/>
</g>
</svg>
